<?xml version="1.0" encoding="UTF-8" standalone="no"?>
<!-- Generator: Adobe Illustrator 18.1.1, SVG Export Plug-In . SVG Version: 6.00 Build 0)  -->

<svg
   xmlns:dc="http://purl.org/dc/elements/1.1/"
   xmlns:cc="http://creativecommons.org/ns#"
   xmlns:rdf="http://www.w3.org/1999/02/22-rdf-syntax-ns#"
   xmlns:svg="http://www.w3.org/2000/svg"
   xmlns="http://www.w3.org/2000/svg"
   xmlns:sodipodi="http://sodipodi.sourceforge.net/DTD/sodipodi-0.dtd"
   xmlns:inkscape="http://www.inkscape.org/namespaces/inkscape"
   version="1.1"
   id="Layer_1"
   x="0px"
   y="0px"
   width="32px"
   height="32px"
   viewBox="0 0 32 32"
   enable-background="new 0 0 32 32"
   xml:space="preserve"
   inkscape:version="0.48.5 r10040"
   sodipodi:docname="social-1_square-email.svg"><metadata
     id="metadata11"><rdf:RDF><cc:Work
         rdf:about=""><dc:format>image/svg+xml</dc:format><dc:type
           rdf:resource="http://purl.org/dc/dcmitype/StillImage" /><dc:title></dc:title></cc:Work></rdf:RDF></metadata><defs
     id="defs9" /><sodipodi:namedview
     pagecolor="#444444"
     bordercolor="#666666"
     borderopacity="1"
     objecttolerance="10"
     gridtolerance="10"
     guidetolerance="10"
     inkscape:pageopacity="0.88627451"
     inkscape:pageshadow="2"
     inkscape:window-width="1920"
     inkscape:window-height="1147"
     id="namedview7"
     showgrid="false"
     inkscape:zoom="20.85965"
     inkscape:cx="16.558823"
     inkscape:cy="16"
     inkscape:window-x="0"
     inkscape:window-y="0"
     inkscape:window-maximized="1"
     inkscape:current-layer="Layer_1" /><rect
     style="fill:#444444;fill-opacity:1"
     id="rect2984"
     width="35.619007"
     height="34.660217"
     x="-1.1026071"
     y="-1.3179128" /><g
     id="g3140"><path
       inkscape:connector-curvature="0"
       id="path3068"
       d="m 9.2585493,21.720391 c -0.734936,-0.255454 -1.245708,-0.888394 -1.378771,-1.708551 -0.09496,-0.58532 -0.09544,-7.068695 -5.58e-4,-7.659772 0.08786,-0.547383 0.404125,-1.102975 0.799514,-1.404549 0.584889,-0.44611 0.287996,-0.430448 7.7776047,-0.410293 l 6.77485,0.01823 0.329724,0.168401 c 0.44536,0.227459 0.950152,0.792699 1.105245,1.237596 0.114979,0.329827 0.124353,0.648005 0.124353,4.221123 0,3.573116 -0.0094,3.891294 -0.124353,4.221121 -0.155093,0.444898 -0.659885,1.010138 -1.105245,1.237597 l -0.329724,0.1684 -6.81356,0.0154 c -6.368756,0.01439 -6.8361157,0.0076 -7.1590797,-0.104701 l 0,0 z M 23.196166,20.701123 c 0.311343,-0.166975 0.477594,-0.40257 0.523008,-0.741154 0.045,-0.335477 0.0832,-0.293137 -0.962562,-1.066875 -0.447457,-0.331067 -0.828813,-0.620684 -0.847457,-0.643594 -0.01864,-0.02291 -0.354237,-0.282742 -0.745763,-0.577403 -0.391525,-0.294661 -0.893387,-0.681703 -1.115247,-0.860092 -0.221861,-0.178389 -0.422535,-0.324344 -0.445943,-0.324344 -0.0413,0 -0.307827,0.19899 -1.754105,1.30961 -0.788681,0.605641 -1.146796,0.789733 -1.532163,0.787621 -0.455627,-0.0025 -0.702468,-0.13978 -1.888652,-1.050377 -0.628589,-0.482549 -1.200631,-0.919224 -1.271203,-0.970389 -0.116166,-0.08422 -0.203113,-0.03608 -0.918409,0.508475 -0.434552,0.330826 -1.082849,0.824173 -1.440661,1.096327 -0.357811,0.272154 -0.714724,0.550255 -0.79314,0.618002 -0.07841,0.06775 -0.3758727,0.298773 -0.6610167,0.513389 -0.285144,0.214616 -0.518443,0.441068 -0.518443,0.503225 0,0.254213 0.308351,0.719285 0.576271,0.869163 l 0.271186,0.151707 6.6451257,0.0011 c 6.339112,0.0011 6.655904,-0.0047 6.879174,-0.124406 l 0,-3e-6 z M 10.374913,17.915341 c 0.759557,-0.580139 1.577746,-1.204407 1.818197,-1.387261 0.418842,-0.318514 0.432011,-0.337345 0.313902,-0.448828 -0.130494,-0.123173 -3.4532777,-2.649657 -3.5978567,-2.735637 -0.06726,-0.04 -0.08475,0.545794 -0.08475,2.838962 0,2.293433 0.01748,2.878861 0.08475,2.838461 0.04661,-0.02799 0.706201,-0.525557 1.4657577,-1.105697 z m 13.36475,-1.729669 0,-2.878261 -1.84627,1.403685 c -1.015448,0.772026 -1.846041,1.434192 -1.845763,1.471481 2.71e-4,0.03729 0.457371,0.416296 1.015761,0.84224 0.55839,0.425944 1.381357,1.05644 1.828815,1.401103 0.447457,0.344663 0.821186,0.629214 0.830508,0.632336 0.0093,0.0031 0.01695,-1.289541 0.01695,-2.872584 z m -6.922276,1.78822 c 0.23203,-0.141454 1.571118,-1.136561 1.634141,-1.214365 0.01864,-0.02302 0.79661,-0.618576 1.728813,-1.323464 0.932204,-0.704888 1.727901,-1.313422 1.768217,-1.352296 0.04031,-0.03888 0.459351,-0.360513 0.931191,-0.71475 0.768494,-0.576954 0.857655,-0.665262 0.855645,-0.847458 -0.0039,-0.35095 -0.205925,-0.664303 -0.53552,-0.830508 l -0.302501,-0.152542 -6.612753,0.0011 -6.6127537,0.0011 -0.269804,0.152809 c -0.281042,0.159164 -0.574594,0.585204 -0.576538,0.836736 -7.85e-4,0.101632 0.154319,0.260612 0.524309,0.537408 0.288983,0.216194 0.540677,0.411687 0.559322,0.434428 0.01864,0.02274 0.7508467,0.587866 1.6271177,1.255831 0.876272,0.667965 2.170064,1.65505 2.875095,2.193521 0.705031,0.538472 1.360963,1.020309 1.457627,1.070751 0.258608,0.134947 0.683249,0.113303 0.948392,-0.04834 l 0,0 z"
       style="fill:#ffffff;fill-opacity:1" /></g><rect
     style="fill:#444444;fill-opacity:0"
     id="rect2983"
     width="32.455002"
     height="32.311184"
     x="-0.047939442"
     y="-0.11942674" /></svg>